<svg width="227" height="72" viewBox="0 0 227 72" fill="none" xmlns="http://www.w3.org/2000/svg">
<g clip-path="url(#clip0_597_2379)">
<path d="M49.2465 13.8692C50.3099 13.25 50.6408 11.8481 49.9172 10.8486C48.8097 9.30949 46.6961 8.13308 43.8986 7.93848C38.3697 7.55814 35.1133 11.2599 34.5309 14.7581C33.6837 19.853 38.2418 24.6294 41.3084 28.7645C46.4711 35.6594 50.4732 43.3193 49.0921 51.6073C47.0667 63.7783 34.4382 72.9154 19.9785 71.9247C6.55576 71.0092 -1.5985 61.0186 0.263568 49.8382C1.89619 40.0245 10.4167 35.3454 18.2356 35.8805C22.3877 36.1635 26.381 38.1493 29.0991 42.1296C29.6816 42.9876 29.5404 44.1463 28.777 44.8451L24.1351 49.0997C23.2746 49.8869 21.9112 49.8382 21.1655 48.9404C20.0888 47.6446 18.796 47.0741 17.4281 46.9768C14.5821 46.7822 11.533 48.8033 10.9374 52.3812C10.1122 57.3257 14.3173 62.3056 21.4302 62.792C30.0434 63.3802 35.7134 57.1532 36.6886 51.2977C37.5005 46.4284 35.2545 41.6608 31.0891 36.451C25.953 29.8658 21.1522 24.1517 22.5333 15.8638C24.0204 6.8859 32.0908 -0.796162 44.6531 0.0662461C57.8464 0.968457 62.356 10.3576 61.2043 17.279C60.3924 22.1483 56.6992 26.5886 51.4042 26.226C47.5345 25.9606 44.9443 22.7852 45.5665 19.0569C45.9327 16.8633 47.3182 14.9881 49.2465 13.8692Z" fill="#FF7300"/>
<path d="M100.374 45.1779C95.0926 56.7607 86.3691 65.5793 73.2067 65.5793C61.8798 65.5793 54.6875 59.1356 54.6875 48.5523C54.6875 36.9695 63.411 24.8516 76.5734 24.8516C85.0674 24.8516 90.3492 29.9154 90.3492 35.8196C90.3492 42.4933 83.8452 51.0068 66.8571 50.5469C67.8543 55.1508 71.3711 57.8353 76.7278 57.8353C84.0746 57.8353 91.342 52.5415 96.0104 43.0329C97.4621 43.1081 99.6065 44.2579 100.374 45.1823V45.1779ZM66.7027 45.4078C76.1145 45.253 80.249 41.1135 80.249 37.739C80.249 35.9744 79.1768 34.3646 76.4234 34.3646C71.6005 34.3646 67.5455 39.3489 66.7071 45.4078H66.7027Z" fill="#FF7300"/>
<path d="M141.238 45.1779C135.956 56.7607 127.232 65.5793 114.07 65.5793C102.743 65.5793 95.5508 59.1356 95.5508 48.5523C95.5508 36.9695 104.274 24.8516 117.437 24.8516C125.931 24.8516 131.212 29.9154 131.212 35.8196C131.212 42.4933 124.708 51.0068 107.72 50.5469C108.718 55.1508 112.234 57.8353 117.591 57.8353C124.938 57.8353 132.205 52.5415 136.874 43.0329C138.325 43.1081 140.47 44.2579 141.238 45.1823V45.1779ZM107.566 45.4078C116.978 45.253 121.112 41.1135 121.112 37.739C121.112 35.9744 120.04 34.3646 117.287 34.3646C112.464 34.3646 108.409 39.3489 107.57 45.4078H107.566Z" fill="#FF7300"/>
<path d="M153.25 25.5436L145.29 51.6237C144.293 54.923 144.756 57.5279 147.739 57.5279C152.024 57.5279 156.158 51.7741 160.443 43.0306C161.899 43.1058 164.039 44.2556 164.802 45.18C159.37 57.0679 152.637 65.3515 143.375 65.3515C134.113 65.3515 132.203 57.9126 134.881 49.0144L142.073 25.5436H153.246H153.25ZM150.956 7.90625C154.706 7.90625 157.535 10.8959 157.535 14.58C157.535 18.264 154.702 21.0989 150.956 21.0989C147.21 21.0989 144.452 18.2596 144.452 14.58C144.452 10.9004 147.285 7.90625 150.956 7.90625Z" fill="#FF7300"/>
<path d="M224.54 45.8564C224.292 45.6088 224.032 45.3832 223.772 45.1709C222.4 43.9724 220.599 43.2427 218.574 43.2427C214.153 43.2427 210.746 46.8383 210.746 51.2653C210.746 54.538 212.608 57.2491 215.366 58.4432C215.19 58.6776 215 58.912 214.775 59.1464C208.99 65.2451 185.811 64.5685 177.878 49.7351L177.344 48.6648C207.371 39.479 198.382 26.167 198.382 26.167C195.113 21.5719 191.066 22.3238 189.05 23.1154C188.997 23.1331 188.948 23.1596 188.896 23.1773C188.829 23.2039 188.763 23.2348 188.701 23.2614C188.556 23.3233 188.41 23.394 188.269 23.4648C188.097 23.5532 187.969 23.624 187.89 23.6727C187.89 23.6727 187.881 23.6771 187.876 23.6815C187.819 23.7169 187.784 23.739 187.784 23.739C186.032 24.8535 184.863 26.7552 184.761 28.9532C184.62 32.1154 186.742 34.7247 189.805 35.397C189.624 35.6889 189.412 35.9985 189.16 36.3301C189.16 36.3301 184.333 42.7252 171.365 45.4142C171.254 45.4363 171.021 45.4805 170.712 45.5336L172.614 39.28L175.137 30.9965L182.149 9.11787C182.524 7.91934 181.633 6.70312 180.384 6.70312H173.108C172.296 6.70312 171.577 7.23384 171.338 8.01222L153.715 64.6702H164.887L168.956 51.3139C173.196 57.4835 177.105 61.0348 177.105 61.0348C187.66 72.0515 209.016 76.4343 221.292 64.5773C228.039 58.0628 228.392 49.7439 224.544 45.8609L224.54 45.8564Z" fill="#FF7300"/>
</g>
<defs>
<clipPath id="clip0_597_2379">
<rect width="227" height="72" fill="white"/>
</clipPath>
</defs>
</svg>
